# xmcd
#
# Track frame offsets:
#	150
#	12840
#	25097
#	38487
#	51170
#	62644
#	72907
#	83043
#	96120
#	107810
#	117452
#	129060
#	140937
#	152227
#	163890
#	176565
#	186938
#	197188
#
# Disc length: 2785
#
# Revision: 2
# Processed by: cddbd v1.5.1PL0 Copyright (c) Steve Scherf et al.
# Submitted via: dBpowerAMP V4.0
# Normalized: r0:DSETVAR1,TDELIM( - ),TSWAP
#
DISCID=f80adf12
DTITLE=Various Artist - Country Greats
DYEAR=1900
DGENRE=Country
TTITLE0=Lynn Anderson - Rose Garden
TTITLE1=Frankie Lane - High Noon
TTITLE2=Kenny Rogers - Ruby Don't Take Your Love to Town
TTITLE3=Billie Jo Spears - Dallas
TTITLE4=Patsy Cline - I've Loved and Lost Again
TTITLE5=Dave Dudley - Six Days on the Road
TTITLE6=Willie Nelson - Broken Promises
TTITLE7=Slim Whitman - Red Sails in the Sunset
TTITLE8=Dolly Parton - Making Believe
TTITLE9=Charley Pride - Kiss an Angel Good Morning
TTITLE10=Patsy Cline - Let the Teardrops Fall
TTITLE11=Lynn Anderson - Rodeo Cowboy
TTITLE12=Anne Murray - The Last Thing On My Mind
TTITLE13=Roy Drusky - Three Hearts in a Tangle
TTITLE14=Kenny Rogers - Reuben James
TTITLE15=Ferlin Husky - Wings of a Dove
TTITLE16=Frankie Lane - I Believe
TTITLE17=Billie Jo Spears - Look What They Done To My Song Ma
EXTD=
EXTT0=
EXTT1=
EXTT2=
EXTT3=
EXTT4=
EXTT5=
EXTT6=
EXTT7=
EXTT8=
EXTT9=
EXTT10=
EXTT11=
EXTT12=
EXTT13=
EXTT14=
EXTT15=
EXTT16=
EXTT17=
PLAYORDER=
